<svg width="128" height="128" viewBox="0 0 128 128" fill="none" xmlns="http://www.w3.org/2000/svg">
<g clip-path="url(#clip0_77_18)">
<path fill-rule="evenodd" clip-rule="evenodd" d="M82.108 76.432C82.587 75.2 83.13 73.987 83.535 72.731C85.823 65.634 88.089 58.531 90.34 51.422C91.205 48.691 92.153 46.002 93.855 43.655C96.547 39.946 100.297 38.003 104.735 37.324C106.483 37.0643 108.248 36.9286 110.015 36.918C115.282 36.868 120.551 36.903 125.819 36.908C126.099 36.908 126.379 36.937 126.776 36.96C126.647 37.264 126.577 37.485 126.465 37.684C124.51 41.178 122.593 44.693 120.58 48.152C117.075 54.174 113.564 60.194 109.949 66.15C107.63 69.969 105.115 73.67 102.262 77.124C100.157 79.672 97.941 82.108 95.116 83.894C93.191 85.111 91.135 85.823 88.801 85.811C80.523 85.766 72.245 85.799 63.967 85.787C61.506 85.783 59.399 84.846 57.611 83.184C55.048 80.803 53.518 77.772 52.266 74.576C49.982 68.741 48.703 62.625 47.235 56.562C46.547 53.724 45.765 50.908 45.02 48.084C44.972 47.901 44.878 47.73 44.77 47.467L44.193 48.009C40.965 51.216 38.122 54.75 35.578 58.507C34.885 59.531 34.652 60.881 34.265 62.098C32.841 66.568 31.543 71.081 30.001 75.509C28.524 79.751 25.876 83.125 21.737 85.119C19.337 86.2825 16.7145 86.9152 14.048 86.974C10.068 87.062 6.08599 87.072 2.10499 87.108C1.15299 87.117 1.10899 87.039 1.35699 86.118C3.06399 79.78 5.22699 73.604 7.93699 67.626C10.731 61.459 14.022 55.578 18.168 50.207C20.991 46.55 24.109 43.176 28.011 40.625C29.99 39.332 32.094 38.31 34.488 38.041C34.882 37.996 35.281 37.968 35.677 37.968C44.155 37.964 52.633 38.05 61.11 37.929C65.657 37.864 68.949 39.784 71.414 43.444C72.947 45.72 74.044 48.205 74.967 50.772C76.828 55.95 77.985 61.319 79.292 66.65C80.04 69.701 80.873 72.731 81.671 75.77C81.731 75.998 81.828 76.216 81.909 76.438L82.108 76.432Z" fill="#BF773D"/>
</g>
<defs>
<clipPath id="clip0_77_18">
<rect width="128" height="128" fill="white"/>
</clipPath>
</defs>
</svg>
