<svg width="120" height="120" viewBox="0 0 120 120" fill="none" xmlns="http://www.w3.org/2000/svg">
<path d="M60 82.575C72.4678 82.575 82.575 72.4678 82.575 60C82.575 47.5322 72.4678 37.425 60 37.425C47.5322 37.425 37.425 47.5322 37.425 60C37.425 72.4678 47.5322 82.575 60 82.575Z" fill="#94E3F3"/>
<path d="M106.069 21.6938C106.071 20.2049 105.644 18.747 104.84 17.4941C104.036 16.2412 102.888 15.2463 101.534 14.6284C100.179 14.0104 98.6753 13.7956 97.2019 14.0094C95.7286 14.2233 94.3479 14.8568 93.225 15.8344C82.0394 7.41764 68.0785 3.55511 54.1574 5.02563C40.2363 6.49616 27.3906 13.1903 18.2104 23.7584C9.03019 34.3264 4.19845 47.9822 4.68943 61.9721C5.18041 75.962 10.9576 89.2455 20.8561 99.1439C30.7545 109.042 44.0379 114.82 58.0279 115.311C72.0178 115.802 85.6736 110.97 96.2416 101.79C106.81 92.6094 113.504 79.7637 114.974 65.8426C116.445 51.9215 112.582 37.9606 104.166 26.775C105.394 25.3671 106.07 23.5619 106.069 21.6938ZM60 113.437C51.5335 113.444 43.1866 111.44 35.6469 107.588C28.1072 103.736 21.5905 98.1486 16.6339 91.2847C11.6772 84.4208 8.42244 76.4774 7.13767 68.109C5.8529 59.7406 6.57494 51.1867 9.24429 43.152C11.9136 35.1173 16.4539 27.8319 22.491 21.896C28.5281 15.9601 35.8892 11.5437 43.9678 9.01048C52.0464 6.47731 60.6113 5.89994 68.9568 7.32596C77.3024 8.75197 85.1896 12.1406 91.9687 17.2125C90.9095 18.7059 90.4129 20.5259 90.5669 22.3503C90.721 24.1747 91.5157 25.8857 92.8103 27.1803C94.1049 28.475 95.8159 29.2697 97.6403 29.4237C99.4647 29.5777 101.285 29.0811 102.778 28.0219C108.71 35.9632 112.316 45.3979 113.193 55.271C114.07 65.1442 112.184 75.0667 107.745 83.9294C103.307 92.7921 96.4904 100.246 88.0587 105.457C79.6269 110.668 69.912 113.431 60 113.437Z" fill="#94E3F3"/>
</svg>
