<svg width="128" height="128" viewBox="0 0 128 128" fill="none" xmlns="http://www.w3.org/2000/svg">
<path d="M63.974 0.00299612C63.586 -0.00700388 63.195 0.0129961 62.806 0.0679961C62.026 0.180996 61.256 0.439996 60.545 0.895996L10.846 29.709L10.908 29.823C9.098 31.023 8.08 33.063 8.08 35.213V92.73C8.08 94.024 8.487 95.264 9.172 96.314L9.032 96.556L9.25 96.822C9.74666 97.433 10.3472 97.9516 11.024 98.354L11.026 98.356L60.272 126.82L60.679 127.057C60.9816 127.227 61.2982 127.372 61.624 127.492C61.807 127.564 61.992 127.624 62.18 127.678C62.258 127.7 62.337 127.716 62.416 127.735C63.062 127.896 63.719 127.987 64.381 127.935L64.417 128L64.767 127.94C65.514 127.814 66.376 127.57 67.139 127.186L67.153 127.178L116.699 98.352C118.227 97.455 119.351 95.942 119.856 94.289L119.92 94.082L119.686 93.679C119.73 93.365 119.758 93.049 119.758 92.728V35.212C119.758 33.695 119.206 32.249 118.289 31.103L118.328 31.032L118.132 30.778C117.742 30.268 117.242 29.855 116.668 29.571L116.695 29.585L90.974 14.716L67.16 0.885996V0.883996C66.6019 0.567724 66 0.335874 65.374 0.195996L65.348 0.153996L65.118 0.113996C65.012 0.0969961 64.9 0.0979961 64.792 0.0839961C64.747 0.0779961 64.702 0.0749961 64.657 0.0699961C64.43 0.0449961 64.205 0.00899612 63.974 0.00299612ZM63.916 1.013H63.922C64.114 1.023 64.307 1.043 64.499 1.066L29.347 61.583L12.227 30.172L61.175 1.746C62.0091 1.2677 62.9535 1.01538 63.915 1.014L63.916 1.013ZM66.196 1.613C66.319 1.663 66.449 1.696 66.568 1.756C66.57 1.756 66.572 1.756 66.574 1.758L90.848 15.79L116.07 30.44C116.439 30.663 116.776 30.937 117.083 31.244L100.81 61.194L66.196 1.613ZM65.189 1.855L100.257 62.212L65.191 126.756C65.093 126.783 64.994 126.784 64.896 126.805L29.903 62.602L65.189 1.855ZM11.383 30.695L28.766 62.586L9.744 95.332C9.31004 94.5329 9.07926 93.6393 9.072 92.73V35.212C9.072 33.4 9.906 31.709 11.382 30.695H11.383ZM117.764 32.068C118.39 32.984 118.766 34.08 118.766 35.212V92.095L101.396 62.197L117.764 32.068ZM100.842 63.218L118.646 93.861C118.347 95.374 117.463 96.714 116.085 97.494L116.081 97.496L66.663 126.198C66.645 126.208 66.626 126.215 66.608 126.225L100.842 63.218ZM29.32 63.605L63.825 126.911C63.7036 126.912 63.5822 126.908 63.461 126.9C63.2256 126.879 62.9918 126.844 62.761 126.793C62.637 126.766 62.514 126.743 62.391 126.706C62.2471 126.664 62.105 126.616 61.965 126.563C61.694 126.462 61.4315 126.34 61.18 126.198H61.178L61.173 126.196L60.652 125.894L11.766 97.504L11.765 97.499C11.228 97.1679 10.752 96.7467 10.358 96.254L29.32 63.605Z" fill="#BF773D"/>
</svg>
